<svg xmlns="http://www.w3.org/2000/svg" xmlns:xlink="http://www.w3.org/1999/xlink" contentStyleType="text/css" height="529px" preserveAspectRatio="none" style="width:927px;height:529px;background:#FFFFFF;" version="1.1" viewBox="0 0 927 529" width="927px" zoomAndPan="magnify"><defs/><g><!--class Funcionario--><g id="elem_Funcionario"><rect codeLine="1" fill="#C9FFC9" height="243.5625" id="Funcionario" rx="2.5" ry="2.5" style="stroke:#181818;stroke-width:0.5;" width="232.2813" x="327.21" y="7"/><ellipse cx="398.2935" cy="23" fill="#ADD1B2" rx="11" ry="11" style="stroke:#181818;stroke-width:1.0;"/><path d="M401.2622,28.6406 Q400.6841,28.9375 400.0435,29.0781 Q399.4029,29.2344 398.6997,29.2344 Q396.1997,29.2344 394.8716,27.5938 Q393.5591,25.9375 393.5591,22.8125 Q393.5591,19.6875 394.8716,18.0313 Q396.1997,16.375 398.6997,16.375 Q399.4029,16.375 400.0435,16.5313 Q400.6997,16.6875 401.2622,16.9844 L401.2622,19.7031 Q400.6372,19.125 400.0435,18.8594 Q399.4497,18.5781 398.8247,18.5781 Q397.481,18.5781 396.7935,19.6563 Q396.106,20.7188 396.106,22.8125 Q396.106,24.9063 396.7935,25.9844 Q397.481,27.0469 398.8247,27.0469 Q399.4497,27.0469 400.0435,26.7813 Q400.6372,26.5 401.2622,25.9219 L401.2622,28.6406 Z " fill="#000000"/><text fill="#000000" font-family="sans-serif" font-size="14" lengthAdjust="spacing" textLength="81.6143" x="418.7935" y="27.8467">Funcionario</text><line style="stroke:#181818;stroke-width:0.5;" x1="328.21" x2="558.4913" y1="39" y2="39"/><ellipse cx="338.21" cy="52.6484" fill="none" rx="3" ry="3" style="stroke:#038048;stroke-width:1.0;"/><text fill="#000000" font-family="sans-serif" font-size="14" lengthAdjust="spacing" textLength="51.3516" x="347.21" y="55.9951">Long id</text><ellipse cx="338.21" cy="68.9453" fill="none" rx="3" ry="3" style="stroke:#038048;stroke-width:1.0;"/><text fill="#000000" font-family="sans-serif" font-size="14" lengthAdjust="spacing" textLength="85.9209" x="347.21" y="72.292">String nome</text><ellipse cx="338.21" cy="85.2422" fill="none" rx="3" ry="3" style="stroke:#038048;stroke-width:1.0;"/><text fill="#000000" font-family="sans-serif" font-size="14" lengthAdjust="spacing" textLength="67.7441" x="347.21" y="88.5889">String cpf</text><ellipse cx="338.21" cy="101.5391" fill="none" rx="3" ry="3" style="stroke:#038048;stroke-width:1.0;"/><text fill="#000000" font-family="sans-serif" font-size="14" lengthAdjust="spacing" textLength="84.8408" x="347.21" y="104.8857">String email</text><ellipse cx="338.21" cy="117.8359" fill="none" rx="3" ry="3" style="stroke:#038048;stroke-width:1.0;"/><text fill="#000000" font-family="sans-serif" font-size="14" lengthAdjust="spacing" textLength="103.8174" x="347.21" y="121.1826">String telefone</text><ellipse cx="338.21" cy="134.1328" fill="none" rx="3" ry="3" style="stroke:#038048;stroke-width:1.0;"/><text fill="#000000" font-family="sans-serif" font-size="14" lengthAdjust="spacing" textLength="189.0889" x="347.21" y="137.4795">LocalDate dataNascimento</text><ellipse cx="338.21" cy="150.4297" fill="none" rx="3" ry="3" style="stroke:#038048;stroke-width:1.0;"/><text fill="#000000" font-family="sans-serif" font-size="14" lengthAdjust="spacing" textLength="173.7012" x="347.21" y="153.7764">LocalDate dataAdmissao</text><ellipse cx="338.21" cy="166.7266" fill="none" rx="3" ry="3" style="stroke:#038048;stroke-width:1.0;"/><text fill="#000000" font-family="sans-serif" font-size="14" lengthAdjust="spacing" textLength="100.6113" x="347.21" y="170.0732">Double salario</text><ellipse cx="338.21" cy="183.0234" fill="none" rx="3" ry="3" style="stroke:#038048;stroke-width:1.0;"/><text fill="#000000" font-family="sans-serif" font-size="14" lengthAdjust="spacing" textLength="95.9492" x="347.21" y="186.3701">Boolean ativo</text><ellipse cx="338.21" cy="199.3203" fill="none" rx="3" ry="3" style="stroke:#038048;stroke-width:1.0;"/><text fill="#000000" font-family="sans-serif" font-size="14" lengthAdjust="spacing" textLength="85.4971" x="347.21" y="202.667">Cargo cargo</text><ellipse cx="338.21" cy="215.6172" fill="none" rx="3" ry="3" style="stroke:#038048;stroke-width:1.0;"/><text fill="#000000" font-family="sans-serif" font-size="14" lengthAdjust="spacing" textLength="135.9189" x="347.21" y="218.9639">Endereco endereco</text><ellipse cx="338.21" cy="231.9141" fill="none" rx="3" ry="3" style="stroke:#038048;stroke-width:1.0;"/><text fill="#000000" font-family="sans-serif" font-size="14" lengthAdjust="spacing" textLength="206.2813" x="347.21" y="235.2607">Departamento departamento</text><line style="stroke:#181818;stroke-width:0.5;" x1="328.21" x2="558.4913" y1="242.5625" y2="242.5625"/></g><!--class Cargo--><g id="elem_Cargo"><rect codeLine="16" fill="#F1F1F1" height="113.1875" id="Cargo" rx="2.5" ry="2.5" style="stroke:#181818;stroke-width:0.5;" width="160.7021" x="7" y="368.3"/><ellipse cx="62.3198" cy="384.3" fill="#ADD1B2" rx="11" ry="11" style="stroke:#181818;stroke-width:1.0;"/><path d="M65.2886,389.9406 Q64.7104,390.2375 64.0698,390.3781 Q63.4292,390.5344 62.7261,390.5344 Q60.2261,390.5344 58.8979,388.8938 Q57.5854,387.2375 57.5854,384.1125 Q57.5854,380.9875 58.8979,379.3313 Q60.2261,377.675 62.7261,377.675 Q63.4292,377.675 64.0698,377.8313 Q64.7261,377.9875 65.2886,378.2844 L65.2886,381.0031 Q64.6636,380.425 64.0698,380.1594 Q63.4761,379.8781 62.8511,379.8781 Q61.5073,379.8781 60.8198,380.9563 Q60.1323,382.0188 60.1323,384.1125 Q60.1323,386.2063 60.8198,387.2844 Q61.5073,388.3469 62.8511,388.3469 Q63.4761,388.3469 64.0698,388.0813 Q64.6636,387.8 65.2886,387.2219 L65.2886,389.9406 Z " fill="#000000"/><text fill="#000000" font-family="sans-serif" font-size="14" lengthAdjust="spacing" textLength="41.5625" x="82.8198" y="389.1467">Cargo</text><line style="stroke:#181818;stroke-width:0.5;" x1="8" x2="166.7021" y1="400.3" y2="400.3"/><ellipse cx="18" cy="413.9484" fill="none" rx="3" ry="3" style="stroke:#038048;stroke-width:1.0;"/><text fill="#000000" font-family="sans-serif" font-size="14" lengthAdjust="spacing" textLength="51.3516" x="27" y="417.2951">Long id</text><ellipse cx="18" cy="430.2453" fill="none" rx="3" ry="3" style="stroke:#038048;stroke-width:1.0;"/><text fill="#000000" font-family="sans-serif" font-size="14" lengthAdjust="spacing" textLength="85.9209" x="27" y="433.592">String nome</text><ellipse cx="18" cy="446.5422" fill="none" rx="3" ry="3" style="stroke:#038048;stroke-width:1.0;"/><text fill="#000000" font-family="sans-serif" font-size="14" lengthAdjust="spacing" textLength="113.21" x="27" y="449.8889">String descricao</text><ellipse cx="18" cy="462.8391" fill="none" rx="3" ry="3" style="stroke:#038048;stroke-width:1.0;"/><text fill="#000000" font-family="sans-serif" font-size="14" lengthAdjust="spacing" textLength="134.7021" x="27" y="466.1857">Double salarioBase</text><line style="stroke:#181818;stroke-width:0.5;" x1="8" x2="166.7021" y1="473.4875" y2="473.4875"/></g><!--class Departamento--><g id="elem_Departamento"><rect codeLine="23" fill="#F1F1F1" height="113.1875" id="Departamento" rx="2.5" ry="2.5" style="stroke:#181818;stroke-width:0.5;" width="166.9092" x="202.9" y="368.3"/><ellipse cx="232.7711" cy="384.3" fill="#ADD1B2" rx="11" ry="11" style="stroke:#181818;stroke-width:1.0;"/><path d="M235.7398,389.9406 Q235.1617,390.2375 234.5211,390.3781 Q233.8805,390.5344 233.1773,390.5344 Q230.6773,390.5344 229.3492,388.8938 Q228.0367,387.2375 228.0367,384.1125 Q228.0367,380.9875 229.3492,379.3313 Q230.6773,377.675 233.1773,377.675 Q233.8805,377.675 234.5211,377.8313 Q235.1773,377.9875 235.7398,378.2844 L235.7398,381.0031 Q235.1148,380.425 234.5211,380.1594 Q233.9273,379.8781 233.3023,379.8781 Q231.9586,379.8781 231.2711,380.9563 Q230.5836,382.0188 230.5836,384.1125 Q230.5836,386.2063 231.2711,387.2844 Q231.9586,388.3469 233.3023,388.3469 Q233.9273,388.3469 234.5211,388.0813 Q235.1148,387.8 235.7398,387.2219 L235.7398,389.9406 Z " fill="#000000"/><text fill="#000000" font-family="sans-serif" font-size="14" lengthAdjust="spacing" textLength="101.8623" x="250.0758" y="389.1467">Departamento</text><line style="stroke:#181818;stroke-width:0.5;" x1="203.9" x2="368.8092" y1="400.3" y2="400.3"/><ellipse cx="213.9" cy="413.9484" fill="none" rx="3" ry="3" style="stroke:#038048;stroke-width:1.0;"/><text fill="#000000" font-family="sans-serif" font-size="14" lengthAdjust="spacing" textLength="51.3516" x="222.9" y="417.2951">Long id</text><ellipse cx="213.9" cy="430.2453" fill="none" rx="3" ry="3" style="stroke:#038048;stroke-width:1.0;"/><text fill="#000000" font-family="sans-serif" font-size="14" lengthAdjust="spacing" textLength="85.9209" x="222.9" y="433.592">String nome</text><ellipse cx="213.9" cy="446.5422" fill="none" rx="3" ry="3" style="stroke:#038048;stroke-width:1.0;"/><text fill="#000000" font-family="sans-serif" font-size="14" lengthAdjust="spacing" textLength="113.21" x="222.9" y="449.8889">String descricao</text><ellipse cx="213.9" cy="462.8391" fill="none" rx="3" ry="3" style="stroke:#038048;stroke-width:1.0;"/><text fill="#000000" font-family="sans-serif" font-size="14" lengthAdjust="spacing" textLength="140.9092" x="222.9" y="466.1857">Funcionario gerente</text><line style="stroke:#181818;stroke-width:0.5;" x1="203.9" x2="368.8092" y1="473.4875" y2="473.4875"/></g><!--class Endereco--><g id="elem_Endereco"><rect codeLine="30" fill="#FFFFCC" height="194.6719" id="Endereco" rx="2.5" ry="2.5" style="stroke:#181818;stroke-width:0.5;" width="168.7002" x="405" y="327.56"/><ellipse cx="452.1748" cy="343.56" fill="#ADD1B2" rx="11" ry="11" style="stroke:#181818;stroke-width:1.0;"/><path d="M455.1436,349.2006 Q454.5654,349.4975 453.9248,349.6381 Q453.2842,349.7944 452.5811,349.7944 Q450.0811,349.7944 448.7529,348.1538 Q447.4404,346.4975 447.4404,343.3725 Q447.4404,340.2475 448.7529,338.5913 Q450.0811,336.935 452.5811,336.935 Q453.2842,336.935 453.9248,337.0913 Q454.5811,337.2475 455.1436,337.5444 L455.1436,340.2631 Q454.5186,339.685 453.9248,339.4194 Q453.3311,339.1381 452.7061,339.1381 Q451.3623,339.1381 450.6748,340.2163 Q449.9873,341.2788 449.9873,343.3725 Q449.9873,345.4663 450.6748,346.5444 Q451.3623,347.6069 452.7061,347.6069 Q453.3311,347.6069 453.9248,347.3413 Q454.5186,347.06 455.1436,346.4819 L455.1436,349.2006 Z " fill="#000000"/><text fill="#000000" font-family="sans-serif" font-size="14" lengthAdjust="spacing" textLength="65.8506" x="472.6748" y="348.4067">Endereco</text><line style="stroke:#181818;stroke-width:0.5;" x1="406" x2="572.7002" y1="359.56" y2="359.56"/><ellipse cx="416" cy="373.2084" fill="none" rx="3" ry="3" style="stroke:#038048;stroke-width:1.0;"/><text fill="#000000" font-family="sans-serif" font-size="14" lengthAdjust="spacing" textLength="51.3516" x="425" y="376.5551">Long id</text><ellipse cx="416" cy="389.5053" fill="none" rx="3" ry="3" style="stroke:#038048;stroke-width:1.0;"/><text fill="#000000" font-family="sans-serif" font-size="14" lengthAdjust="spacing" textLength="122.5547" x="425" y="392.852">String logradouro</text><ellipse cx="416" cy="405.8022" fill="none" rx="3" ry="3" style="stroke:#038048;stroke-width:1.0;"/><text fill="#000000" font-family="sans-serif" font-size="14" lengthAdjust="spacing" textLength="100.5498" x="425" y="409.1489">String numero</text><ellipse cx="416" cy="422.0991" fill="none" rx="3" ry="3" style="stroke:#038048;stroke-width:1.0;"/><text fill="#000000" font-family="sans-serif" font-size="14" lengthAdjust="spacing" textLength="142.7002" x="425" y="425.4457">String complemento</text><ellipse cx="416" cy="438.3959" fill="none" rx="3" ry="3" style="stroke:#038048;stroke-width:1.0;"/><text fill="#000000" font-family="sans-serif" font-size="14" lengthAdjust="spacing" textLength="87.6641" x="425" y="441.7426">String bairro</text><ellipse cx="416" cy="454.6928" fill="none" rx="3" ry="3" style="stroke:#038048;stroke-width:1.0;"/><text fill="#000000" font-family="sans-serif" font-size="14" lengthAdjust="spacing" textLength="92.7842" x="425" y="458.0395">String cidade</text><ellipse cx="416" cy="470.9897" fill="none" rx="3" ry="3" style="stroke:#038048;stroke-width:1.0;"/><text fill="#000000" font-family="sans-serif" font-size="14" lengthAdjust="spacing" textLength="93.6592" x="425" y="474.3364">String estado</text><ellipse cx="416" cy="487.2866" fill="none" rx="3" ry="3" style="stroke:#038048;stroke-width:1.0;"/><text fill="#000000" font-family="sans-serif" font-size="14" lengthAdjust="spacing" textLength="71.4287" x="425" y="490.6332">String cep</text><ellipse cx="416" cy="503.5834" fill="none" rx="3" ry="3" style="stroke:#038048;stroke-width:1.0;"/><text fill="#000000" font-family="sans-serif" font-size="14" lengthAdjust="spacing" textLength="74.8809" x="425" y="506.9301">String pais</text><line style="stroke:#181818;stroke-width:0.5;" x1="406" x2="572.7002" y1="514.2319" y2="514.2319"/></g><!--class HistoricoSalario--><g id="elem_HistoricoSalario"><rect fill="#F1F1F1" height="48" id="HistoricoSalario" rx="2.5" ry="2.5" style="stroke:#181818;stroke-width:0.5;" width="141.8193" x="608.44" y="400.89"/><ellipse cx="623.44" cy="416.89" fill="#ADD1B2" rx="11" ry="11" style="stroke:#181818;stroke-width:1.0;"/><path d="M626.4088,422.5306 Q625.8306,422.8275 625.19,422.9681 Q624.5494,423.1244 623.8463,423.1244 Q621.3463,423.1244 620.0181,421.4838 Q618.7056,419.8275 618.7056,416.7025 Q618.7056,413.5775 620.0181,411.9213 Q621.3463,410.265 623.8463,410.265 Q624.5494,410.265 625.19,410.4213 Q625.8463,410.5775 626.4088,410.8744 L626.4088,413.5931 Q625.7838,413.015 625.19,412.7494 Q624.5963,412.4681 623.9713,412.4681 Q622.6275,412.4681 621.94,413.5463 Q621.2525,414.6088 621.2525,416.7025 Q621.2525,418.7963 621.94,419.8744 Q622.6275,420.9369 623.9713,420.9369 Q624.5963,420.9369 625.19,420.6713 Q625.7838,420.39 626.4088,419.8119 L626.4088,422.5306 Z " fill="#000000"/><text fill="#000000" font-family="sans-serif" font-size="14" lengthAdjust="spacing" textLength="109.8193" x="637.44" y="421.7367">HistoricoSalario</text><line style="stroke:#181818;stroke-width:0.5;" x1="609.44" x2="749.2593" y1="432.89" y2="432.89"/><line style="stroke:#181818;stroke-width:0.5;" x1="609.44" x2="749.2593" y1="440.89" y2="440.89"/></g><!--class HistoricoCargo--><g id="elem_HistoricoCargo"><rect fill="#F1F1F1" height="48" id="HistoricoCargo" rx="2.5" ry="2.5" style="stroke:#181818;stroke-width:0.5;" width="135.2363" x="785.73" y="400.89"/><ellipse cx="800.73" cy="416.89" fill="#ADD1B2" rx="11" ry="11" style="stroke:#181818;stroke-width:1.0;"/><path d="M803.6988,422.5306 Q803.1206,422.8275 802.48,422.9681 Q801.8394,423.1244 801.1363,423.1244 Q798.6363,423.1244 797.3081,421.4838 Q795.9956,419.8275 795.9956,416.7025 Q795.9956,413.5775 797.3081,411.9213 Q798.6363,410.265 801.1363,410.265 Q801.8394,410.265 802.48,410.4213 Q803.1363,410.5775 803.6988,410.8744 L803.6988,413.5931 Q803.0738,413.015 802.48,412.7494 Q801.8863,412.4681 801.2613,412.4681 Q799.9175,412.4681 799.23,413.5463 Q798.5425,414.6088 798.5425,416.7025 Q798.5425,418.7963 799.23,419.8744 Q799.9175,420.9369 801.2613,420.9369 Q801.8863,420.9369 802.48,420.6713 Q803.0738,420.39 803.6988,419.8119 L803.6988,422.5306 Z " fill="#000000"/><text fill="#000000" font-family="sans-serif" font-size="14" lengthAdjust="spacing" textLength="103.2363" x="814.73" y="421.7367">HistoricoCargo</text><line style="stroke:#181818;stroke-width:0.5;" x1="786.73" x2="919.9663" y1="432.89" y2="432.89"/><line style="stroke:#181818;stroke-width:0.5;" x1="786.73" x2="919.9663" y1="440.89" y2="440.89"/></g><!--link Funcionario to Cargo--><g id="link_Funcionario_Cargo"><path codeLine="43" d="M327,195.35 C287.85,219.81 245.08,249.28 209.35,280.56 C179.6,306.6 154.4442,335.3457 132.2542,363.3757 " fill="none" id="Funcionario-to-Cargo" style="stroke:#181818;stroke-width:1.0;"/><polygon fill="#181818" points="128.53,368.08,137.2525,363.5063,131.6335,364.1597,130.9801,358.5408,128.53,368.08" style="stroke:#181818;stroke-width:1.0;"/><text fill="#000000" font-family="sans-serif" font-size="13" lengthAdjust="spacing" textLength="36.6641" x="210.35" y="293.6269">cargo</text><text fill="#000000" font-family="sans-serif" font-size="13" lengthAdjust="spacing" textLength="8.271" x="125.0777" y="357.3167">1</text></g><!--link Funcionario to Departamento--><g id="link_Funcionario_Departamento"><path codeLine="44" d="M326.99,199.76 C300.18,221.98 275.19,249.1 260.35,280.56 C247.51,307.78 250.411,334.9424 259.131,362.3524 " fill="none" id="Funcionario-to-Departamento" style="stroke:#181818;stroke-width:1.0;"/><polygon fill="#181818" points="260.95,368.07,262.0333,358.2809,259.4342,363.3053,254.4098,360.7062,260.95,368.07" style="stroke:#181818;stroke-width:1.0;"/><text fill="#000000" font-family="sans-serif" font-size="13" lengthAdjust="spacing" textLength="92.8281" x="261.35" y="293.6269">departamento</text><text fill="#000000" font-family="sans-serif" font-size="13" lengthAdjust="spacing" textLength="8.271" x="249.3828" y="357.3055">1</text></g><!--link Departamento to Funcionario--><g id="link_Departamento_Funcionario"><path codeLine="48" d="M319.02,367.94 C331.56,346.11 345.85,320.79 358.35,297.56 C366.47,282.46 372.0923,271.8338 380.2523,255.9938 " fill="none" id="Departamento-to-Funcionario" style="stroke:#181818;stroke-width:1.0;"/><polygon fill="#181818" points="383,250.66,375.3225,256.8289,380.7102,255.1049,382.4343,260.4926,383,250.66" style="stroke:#181818;stroke-width:1.0;"/><text fill="#000000" font-family="sans-serif" font-size="13" lengthAdjust="spacing" textLength="50.9272" x="367.35" y="293.6269">gerente</text><text fill="#000000" font-family="sans-serif" font-size="13" lengthAdjust="spacing" textLength="8.271" x="371.0869" y="270.615">1</text></g><!--link Funcionario to Endereco--><g id="link_Funcionario_Endereco"><path codeLine="45" d="M462.26,250.68 C466.25,276.19 469.4826,296.8521 473.3126,321.3321 " fill="none" id="Funcionario-to-Endereco" style="stroke:#181818;stroke-width:1.0;"/><polygon fill="#181818" points="474.24,327.26,476.8008,317.7499,473.4671,322.3201,468.8969,318.9865,474.24,327.26" style="stroke:#181818;stroke-width:1.0;"/><text fill="#000000" font-family="sans-serif" font-size="13" lengthAdjust="spacing" textLength="60.9312" x="470.35" y="293.6269">endereco</text><text fill="#000000" font-family="sans-serif" font-size="13" lengthAdjust="spacing" textLength="8.271" x="464.8466" y="316.6109">1</text></g><!--link Funcionario to HistoricoSalario--><g id="link_Funcionario_HistoricoSalario"><path codeLine="46" d="M540.36,250.68 C585.37,306.77 630.8246,363.4206 656.9146,395.9306 " fill="none" id="Funcionario-to-HistoricoSalario" style="stroke:#181818;stroke-width:1.0;"/><polygon fill="#181818" points="660.67,400.61,658.1566,391.0873,657.5405,396.7105,651.9173,396.0944,660.67,400.61" style="stroke:#181818;stroke-width:1.0;"/><text fill="#000000" font-family="sans-serif" font-size="13" lengthAdjust="spacing" textLength="100.439" x="577.35" y="293.6269">historicoSalario</text><text fill="#000000" font-family="sans-serif" font-size="13" lengthAdjust="spacing" textLength="23.0356" x="630.3181" y="389.9467">0..*</text></g><!--link Funcionario to HistoricoCargo--><g id="link_Funcionario_HistoricoCargo"><path codeLine="47" d="M559.81,189.85 C624.09,225.64 703.58,274.38 767.35,327.56 C793.87,349.67 815.8869,375.3269 832.1869,396.0169 " fill="none" id="Funcionario-to-HistoricoCargo" style="stroke:#181818;stroke-width:1.0;"/><polygon fill="#181818" points="835.9,400.73,833.4725,391.185,832.8058,396.8024,827.1883,396.1357,835.9,400.73" style="stroke:#181818;stroke-width:1.0;"/><text fill="#000000" font-family="sans-serif" font-size="13" lengthAdjust="spacing" textLength="94.3262" x="727.35" y="293.6269">historicoCargo</text><text fill="#000000" font-family="sans-serif" font-size="13" lengthAdjust="spacing" textLength="23.0356" x="805.4866" y="389.701">0..*</text></g><!--SRC=[fLB1JiCm3BttAwBj1je4rnwGA0DnG5p63tY9rrbAuofEaH3YtycsT6kw0KBh8QgV7VizlsWB8kgfSvhOWITMqpVK6yUMwu_FGiNlMhsmgnMP52s3fnWxRZ17TBlE0Mo0R0u5jBXcXuVE6km20Ye30Lv1D3Ne0fzDtvk6HA1FBhXRMLG2TiixWHMpHN0A0htts0FucfNUdWbvT0OzQbQOVlgMs88FiAEWp20elef2xrQrR_RFpHWKxKd_GBq2mUE0ZCE5SuQ-rb6e2uD1XoLCgqx8eSYlq-A3y62uypnYqJKunZGthSMXaocn0l8dnMJ0Z8IWX3XhL8Tj3hH0ifLJ36NEPdTgSZj9FfN9zdCLsQBBtEvpzOTzbSTdSr9tCvzVJTGpIU1e12_t3iShcn7qvzLUm2O3YenrJstOg-oT_WO0]--></g></svg>